<mxfile host="app.diagrams.net" modified="2022-12-25T07:47:09.498Z" agent="5.0 (Windows NT 10.0; Win64; x64) AppleWebKit/537.36 (KHTML, like Gecko) Chrome/102.0.0.0 Safari/537.36" version="20.7.4" etag="7dCRWw0WCOkaVtmu6LnE" type="github">
  <diagram id="bNevwKoq9lqKUkM7-EGf" name="Sayfa -1">
    <mxGraphModel dx="538" dy="494" grid="1" gridSize="10" guides="1" tooltips="1" connect="1" arrows="1" fold="1" page="1" pageScale="1" pageWidth="827" pageHeight="1169" math="0" shadow="0">
      <root>
        <mxCell id="0" />
        <mxCell id="1" parent="0" />
      </root>
    </mxGraphModel>
  </diagram>
</mxfile>
